<svg xmlns="http://www.w3.org/2000/svg" width="208.437" height="73.518" viewBox="0 0 208.437 73.518"><defs><style>.a{fill:#d0c48a;}.b{fill:#fff;}</style></defs><g transform="translate(502.18 611.829)"><path class="a" d="M-481.55-613.867h6.029v-4.841h4.416v4.841h6.114l4.671,5.6v12.653h-5.52v-4.84h-5.1v4.84h-5.6v-11.549Z" transform="translate(112.758 24.973)"/><path class="a" d="M-476.916-609.862h6.029v-4.84h4.416v4.84h6.114l4.671,5.6V-591.6h-5.52v-4.84h-5.1v4.84h-5.6v-11.549Z" transform="translate(129.354 39.319)"/><path class="a" d="M-469.8-609.862h6.029v-4.84h4.416v4.84h6.114l4.671,5.6V-591.6h-5.52v-4.84h-5.1v4.84h-5.6v-11.549Z" transform="translate(154.829 39.319)"/><path class="a" d="M-474.437-613.867h6.029v-4.841h4.416v4.841h6.114l4.671,5.6v12.653h-5.52v-4.84h-5.1v4.84h-5.6v-11.549Z" transform="translate(138.234 24.973)"/><path class="a" d="M-479-617.817h6.029v-4.841h4.416v4.841h6.114l4.671,5.6v12.653h-5.52v-4.84h-5.1v4.84h-5.6v-11.549Z" transform="translate(121.876 10.828)"/><rect class="a" width="4.467" height="5.08" transform="translate(-320.37 -557.465)"/><g transform="translate(-501.42 -567.094)"><path class="b" d="M-496.922-602.777l-.919,5.246h-4.2l2.54-14.531h6.461c2.8,0,5.444.98,5.444,4.229,0,2.743-1.788,5.055-5.462,5.055Zm.505-2.941h2.638a1.832,1.832,0,0,0,2.053-1.936c0-1.215-.851-1.479-1.9-1.479h-2.176Z" transform="translate(502.045 612.061)"/><path class="b" d="M-499.338-610.3h3.958l-.647,3.681h-3.964Z" transform="translate(512.649 621.151)"/><path class="b" d="M-495.3-597.53h-3.927l7.682-14.531h4.389l2.4,14.531h-4.39l-.284-2.805h-4.512Zm2.737-5.672h2.848l-.469-4.753h-.043Z" transform="translate(516.6 612.061)"/><path class="b" d="M-496.1-610.3h3.958l-.647,3.681h-3.964Z" transform="translate(529.368 621.151)"/><path class="b" d="M-490-602.777l-.913,5.246h-4.211l2.546-14.531h6.455c2.8,0,5.449.98,5.449,4.229,0,2.743-1.788,5.055-5.468,5.055Zm.511-2.941h2.639a1.832,1.832,0,0,0,2.053-1.936c0-1.215-.851-1.479-1.911-1.479h-2.176Z" transform="translate(537.802 612.061)"/><path class="b" d="M-492.811-605.333a6.124,6.124,0,0,1,6.338-6.134c3.008,0,5.61,1.825,5.61,5.136a6.1,6.1,0,0,1-6.362,6.1C-490.253-600.235-492.811-602.041-492.811-605.333Zm7.885-1.381c0-1.523-.431-2.275-1.486-2.275-1.991,0-2.337,2.638-2.337,4.063,0,1.479.388,2.213,1.443,2.213C-485.315-602.713-484.926-605.271-484.926-606.714Z" transform="translate(549.738 615.129)"/><path class="b" d="M-488.956-611.135h3.5l-.382,2.17h.037c.956-1.64,2.213-2.5,3.557-2.5a2.414,2.414,0,0,1,.647.08l-.629,3.557a2.767,2.767,0,0,0-1.017-.2c-1.418,0-2.417,1.14-2.842,2.762l-.789,4.636H-490.8Z" transform="translate(560.099 615.16)"/><path class="b" d="M-481.428-606.007h-2.379l-.549,3.249a13.538,13.538,0,0,0-.24,1.5c0,.715.691.832,1.258.832a6.571,6.571,0,0,0,1.017-.1l-.45,2.521a5.781,5.781,0,0,1-2.071.321c-1.381,0-3.718-.345-3.718-2.9a14.235,14.235,0,0,1,.24-2.133l.592-3.292h-1.628l.45-2.54h1.745l.937-3.415h3.452l-.586,3.415h2.374Z" transform="translate(567.583 612.573)"/><path class="b" d="M-488.075-600.629l1.849-10.506h3.755l-.278,1.585h.037a5.288,5.288,0,0,1,3.8-1.911c1.751,0,3.07.918,3.07,2.682a15.245,15.245,0,0,1-.308,2.441l-1.011,5.709h-3.9l.956-5.284a11.852,11.852,0,0,0,.2-1.665c0-.69-.283-1.14-1.017-1.14a2.924,2.924,0,0,0-2.034,1.054l-1.2,7.034Z" transform="translate(574.199 615.16)"/><path class="b" d="M-475.165-602.651a6.114,6.114,0,0,1-5.16,2.417c-2.947,0-5.629-1.443-5.629-4.975a6.045,6.045,0,0,1,6.2-6.257,4.88,4.88,0,0,1,5.221,5.24,8.579,8.579,0,0,1-.061,1.036h-7.7c.019,1.5.629,2.478,2.028,2.478a2.756,2.756,0,0,0,2.158-1.017Zm-6.861-4.47h3.921a3.347,3.347,0,0,0,.037-.407,1.552,1.552,0,0,0-1.683-1.627A2.438,2.438,0,0,0-482.027-607.121Z" transform="translate(585.154 615.129)"/><path class="b" d="M-482.2-611.135h3.5l-.388,2.17h.043c.955-1.64,2.213-2.5,3.557-2.5a2.415,2.415,0,0,1,.647.08l-.629,3.557a2.82,2.82,0,0,0-1.017-.2c-1.418,0-2.417,1.14-2.842,2.762l-.8,4.636h-3.921Z" transform="translate(595.008 615.16)"/><path class="b" d="M-482.056-597.53l2.558-14.531h4.211l-2.583,14.531Z" transform="translate(605.286 612.061)"/><path class="b" d="M-481.033-600.629l1.849-10.506h3.761l-.284,1.585h.037a5.3,5.3,0,0,1,3.8-1.911c1.744,0,3.07.918,3.07,2.682a15.951,15.951,0,0,1-.308,2.441l-1.017,5.709h-3.9l.956-5.284a11.864,11.864,0,0,0,.2-1.665c0-.69-.284-1.14-1.017-1.14a2.911,2.911,0,0,0-2.028,1.054l-1.2,7.034Z" transform="translate(610.57 615.16)"/><path class="b" d="M-468.119-603.527a5.76,5.76,0,0,1-5.382,3.292c-2.922,0-5.407-1.646-5.407-5a6.14,6.14,0,0,1,6.3-6.233c2.6,0,4.753,1.381,4.919,4.1l-3.354.222c-.1-.789-.505-1.843-1.566-1.843-1.541,0-2.213,2.256-2.213,3.982,0,1.276.364,2.293,1.541,2.293a2.179,2.179,0,0,0,1.991-1.683Z" transform="translate(621.546 615.129)"/></g><g transform="translate(-502.18 -545.42)"><path class="b" d="M-498.36-602.416l-.509-2.585h-.9l-.452,2.585h-1.956l1.19-6.743h3.008c1.258,0,2.494.452,2.494,1.887a2.124,2.124,0,0,1-1.51,2.082l.755,2.756v.017Zm-1.166-3.94h1.235a.778.778,0,0,0,.841-.795c0-.463-.32-.652-.806-.652h-1.018Z" transform="translate(502.18 609.341)"/><path class="b" d="M-498.35-606.539h2.454l-.246,1.424H-498.6l-.223,1.275h3.008l-.246,1.424h-4.964l1.189-6.743h4.907l-.257,1.424h-2.951Z" transform="translate(507.654 609.341)"/><path class="b" d="M-494.521-607.028a2.713,2.713,0,0,0-1.876-.818c-.509,0-.909.149-.909.566,0,.537.692.595,1.538.846,1.207.36,2.031.909,2.031,2.076,0,1.464-1.264,2.276-2.928,2.276a4.467,4.467,0,0,1-3.385-1.39l1.161-.932a3.086,3.086,0,0,0,2.19.978c.521,0,.961-.137.961-.572,0-.583-.789-.692-1.659-.955-1.143-.349-1.916-.829-1.916-1.979,0-1.4,1.15-2.259,2.785-2.259a4.485,4.485,0,0,1,3.168,1.23Z" transform="translate(512.227 609.19)"/><path class="b" d="M-498.9-602.416l1.189-6.743h1.95l-1.2,6.743Z" transform="translate(517.682 609.341)"/><path class="b" d="M-497.176-609.158h2.471c1.984,0,3.208,1.075,3.208,2.991a3.478,3.478,0,0,1-3.591,3.752h-3.266Zm1.012,5.4h.852c1.315,0,1.835-1.418,1.835-2.476,0-1.075-.5-1.568-1.4-1.568h-.589Z" transform="translate(520.234 609.341)"/><path class="b" d="M-494.459-606.539h2.453l-.246,1.424h-2.453l-.223,1.275h3.008l-.246,1.424h-4.964l1.189-6.743h4.907l-.258,1.424h-2.951Z" transform="translate(526.01 609.341)"/><path class="b" d="M-489.02-609.158l-1.189,6.743h-1.447l-2.133-3.906h-.017l-.086.595-.583,3.311h-1.659l1.19-6.743h1.721l1.916,3.534h.017l.086-.595.52-2.94Z" transform="translate(530.71 609.341)"/><path class="b" d="M-491.052-607.734l-.932,5.318h-1.944l.927-5.318h-1.83l.252-1.424h5.621l-.252,1.424Z" transform="translate(536.854 609.341)"/><path class="b" d="M-493.908-602.416l1.189-6.743h1.95l-1.2,6.743Z" transform="translate(541.214 609.341)"/><path class="b" d="M-491.683-602.416H-493.5l3.569-6.743h2.036l1.115,6.743h-2.041l-.126-1.3h-2.1Zm1.275-2.631h1.321l-.217-2.208h-.017Z" transform="translate(543.13 609.341)"/><path class="b" d="M-492.256-602.416l1.19-6.743h1.95l-.944,5.318h2.739l-.246,1.424Z" transform="translate(549.01 609.341)"/><path class="b" d="M-484.5-603.831a1.575,1.575,0,0,0,.783.189c.1,0,.217,0,.315-.006l-.258,1.516a2.239,2.239,0,0,1-.372.029,3.244,3.244,0,0,1-1.95-.6,4.3,4.3,0,0,1-2.282.623c-1.121,0-2.482-.372-2.482-1.779,0-1.235,1.046-1.847,2.15-2.173a2.475,2.475,0,0,1-.423-1.3c0-1.143,1.075-1.853,2.351-1.853.892,0,2.271.355,2.271,1.607,0,1-.869,1.51-1.79,1.87.411.526.509.726.755,1.018a5.863,5.863,0,0,0,1.006-1.361l1.292.561A8.062,8.062,0,0,1-484.5-603.831Zm-2.356.2c-.463-.572-.623-.875-1.069-1.47-.612.28-.886.623-.886,1.029,0,.514.446.749.915.749A2.258,2.258,0,0,0-486.859-603.631Zm.046-2.848c.463-.171.915-.44.915-.955a.6.6,0,0,0-.652-.629.609.609,0,0,0-.686.595A1.843,1.843,0,0,0-486.814-606.479Z" transform="translate(556.126 609.19)"/><path class="b" d="M-482.538-604.1a3.369,3.369,0,0,1-3.151,2.019,2.854,2.854,0,0,1-3.025-3.077,3.79,3.79,0,0,1,3.677-4.032,2.605,2.605,0,0,1,2.848,2.562l-1.83.1c-.074-.681-.4-1.293-1.046-1.293-1.115,0-1.567,1.79-1.567,2.877,0,.927.315,1.487,1.041,1.487.657,0,1.1-.452,1.361-1.19Z" transform="translate(565.724 609.19)"/><path class="b" d="M-487.539-605.261a3.787,3.787,0,0,1,3.706-3.929,3.028,3.028,0,0,1,3.168,3.174,3.8,3.8,0,0,1-3.717,3.935A3.026,3.026,0,0,1-487.539-605.261Zm4.7-1c0-.955-.235-1.556-.972-1.556-1.275,0-1.544,1.773-1.544,2.8,0,.961.235,1.561.966,1.561C-483.107-603.454-482.844-605.261-482.844-606.262Z" transform="translate(571.269 609.19)"/><path class="b" d="M-485.126-609.158h2.493l.629,3.5h.017l1.882-3.5h2.579l-1.2,6.743h-1.9l.641-3.62.12-.641h-.017l-2.2,4.261h-1.2l-.7-4.261h-.017l-.1.641-.629,3.62h-1.6Z" transform="translate(577.045 609.341)"/><path class="b" d="M-483.6-609.158h2.488l.635,3.5h.017l1.876-3.5H-476l-1.2,6.743h-1.9l.64-3.62.12-.641h-.017l-2.2,4.261h-1.2l-.7-4.261h-.017l-.1.641-.629,3.62h-1.6Z" transform="translate(584.251 609.341)"/><path class="b" d="M-480.59-606.539h2.453l-.246,1.424h-2.454l-.229,1.275h3.014l-.246,1.424h-4.964l1.19-6.743h4.907l-.257,1.424h-2.951Z" transform="translate(591.457 609.341)"/><path class="b" d="M-478.444-602.416l-.509-2.585h-.9l-.452,2.585h-1.956l1.189-6.743h3.008c1.252,0,2.494.452,2.494,1.887a2.13,2.13,0,0,1-1.51,2.082l.755,2.756v.017Zm-1.172-3.94h1.241a.774.774,0,0,0,.835-.795c0-.463-.32-.652-.8-.652h-1.018Z" transform="translate(596.161 609.341)"/><path class="b" d="M-481.1-602.416l1.19-6.743h1.95l-1.2,6.743Z" transform="translate(601.635 609.341)"/><path class="b" d="M-474.357-604.1a3.362,3.362,0,0,1-3.151,2.019,2.856,2.856,0,0,1-3.025-3.077,3.79,3.79,0,0,1,3.677-4.032A2.607,2.607,0,0,1-474-606.628l-1.836.1c-.074-.681-.395-1.293-1.046-1.293-1.109,0-1.567,1.79-1.567,2.877,0,.927.315,1.487,1.041,1.487.657,0,1.1-.452,1.367-1.19Z" transform="translate(604.329 609.19)"/><path class="b" d="M-477.724-602.416h-1.819l3.568-6.743h2.036l1.115,6.743h-2.042l-.132-1.3h-2.093Zm1.275-2.631h1.321l-.217-2.208h-.017Z" transform="translate(609.001 609.341)"/><path class="b" d="M-478.3-602.416l1.189-6.743h1.95l-.944,5.318h2.739l-.246,1.424Z" transform="translate(614.881 609.341)"/><path class="b" d="M-472.961-602.416-473.47-605h-.9l-.452,2.585h-1.956l1.19-6.743h3.008c1.258,0,2.493.452,2.493,1.887a2.124,2.124,0,0,1-1.51,2.082l.755,2.756v.017Zm-1.166-3.94h1.235a.778.778,0,0,0,.841-.795c0-.463-.32-.652-.806-.652h-1.018Z" transform="translate(622.035 609.341)"/><path class="b" d="M-472.95-606.539h2.453l-.246,1.424H-473.2l-.223,1.275h3.008l-.246,1.424h-4.964l1.189-6.743h4.907l-.257,1.424h-2.951Z" transform="translate(627.509 609.341)"/><path class="b" d="M-473.435-609.158h2.488l.635,3.5h.017l1.876-3.5h2.585l-1.2,6.743h-1.9l.64-3.62.12-.641h-.017l-2.2,4.261h-1.2l-.7-4.261h-.023l-.091.641-.635,3.62h-1.59Z" transform="translate(632.209 609.341)"/><path class="b" d="M-473.066-605.261a3.788,3.788,0,0,1,3.712-3.929,3.028,3.028,0,0,1,3.168,3.174,3.8,3.8,0,0,1-3.717,3.935A3.031,3.031,0,0,1-473.066-605.261Zm4.7-1c0-.955-.234-1.556-.972-1.556-1.275,0-1.544,1.773-1.544,2.8,0,.961.234,1.561.966,1.561C-468.628-603.454-468.365-605.261-468.365-606.262Z" transform="translate(639.565 609.19)"/><path class="b" d="M-470.661-609.158h2.47c1.984,0,3.208,1.075,3.208,2.991a3.475,3.475,0,0,1-3.591,3.752h-3.265Zm1.012,5.4h.858c1.31,0,1.83-1.418,1.83-2.476,0-1.075-.5-1.568-1.4-1.568h-.583Z" transform="translate(645.356 609.341)"/><path class="b" d="M-467.943-606.539h2.448l-.24,1.424h-2.459l-.223,1.275h3.008l-.246,1.424h-4.958l1.19-6.743h4.9l-.251,1.424h-2.957Z" transform="translate(651.136 609.341)"/><path class="b" d="M-469.619-602.416l1.189-6.743h1.95l-.943,5.318h2.739l-.246,1.424Z" transform="translate(655.831 609.341)"/><path class="b" d="M-468.7-602.416l1.189-6.743h1.956l-1.2,6.743Z" transform="translate(660.158 609.341)"/><path class="b" d="M-461.048-609.158l-1.189,6.743h-1.441l-2.133-3.906h-.023l-.086.595-.583,3.311h-1.658l1.189-6.743h1.727l1.916,3.534h.017l.085-.595.515-2.94Z" transform="translate(662.707 609.341)"/><path class="b" d="M-460.981-602.265h-1.092l.011-.749h-.023a2.356,2.356,0,0,1-1.973.932,2.8,2.8,0,0,1-2.836-3.088,3.734,3.734,0,0,1,3.706-4.02,2.671,2.671,0,0,1,2.934,2.185l-1.847.28a1.179,1.179,0,0,0-1.087-1.093c-1.178,0-1.659,1.876-1.659,2.831,0,.784.326,1.516,1.121,1.516a1.416,1.416,0,0,0,1.344-1.241h-1.247l.212-1.23h3.088Z" transform="translate(668.69 609.19)"/></g></g></svg>